<svg width="57" height="41" viewBox="0 0 57 41" fill="none" xmlns="http://www.w3.org/2000/svg">
<path d="M9.48607 8.03409C9.84583 9.05491 9.30769 10.1732 8.28987 10.5314C7.26755 10.8912 6.1523 10.3545 5.79104 9.33372C5.43278 8.31291 5.96942 7.19616 6.99024 6.8364C8.01106 6.47664 9.12781 7.01178 9.48607 8.03409Z" fill="#ED1C24"/>
<path d="M19.3032 4.40967C18.4637 3.9225 14.4119 1.57358 13.2757 0.921513C13.0778 0.789602 13.0134 1.04293 13.1408 1.14187C15.6021 2.95265 17.3739 6.05108 16.8958 9.94097C16.4386 13.6585 13.6909 16.5096 10.8443 17.4734C8.31552 18.3293 7.3007 18.6082 6.857 18.7431C7.20177 19.7309 7.95726 22.3212 6.39531 25.2382C5.47043 26.9665 3.52923 28.6484 1.12484 29.1446C1.02591 29.1656 0.910489 29.1956 1.00343 29.245C1.11435 29.308 5.0642 31.5865 5.0642 31.5865C6.67262 32.5158 9.46225 32.1501 11.1081 31.2177C11.9986 30.7125 12.6521 30.1009 13.3866 29.2615C14.7282 27.7295 15.1779 25.4166 14.9801 23.4229C15.6801 23.1501 19.0483 22.0678 20.5848 20.9046C21.9819 19.8463 23.8691 17.8617 24.3203 14.1382C24.8554 9.72211 22.4705 6.24744 19.3032 4.40967Z" fill="#ED1C24"/>
<path d="M24.4194 38.3242C24.4194 38.8174 24.7282 39.1217 25.1854 39.1217H26.587C26.7399 39.1217 26.7609 39.1876 26.7609 39.2746V39.7992C26.7609 39.9072 26.7399 39.9611 26.5645 39.9611C26.2587 39.9611 25.3713 39.9611 23.3147 39.9611C21.39 39.9611 19.6421 39.9611 19.4023 39.9611C19.2509 39.9611 19.2119 39.9057 19.2119 39.8202V39.2746C19.2119 39.1622 19.2509 39.1217 19.3588 39.1217H20.3002C21.0722 39.1232 21.3225 38.8609 21.3225 38.3242C21.3225 38.1039 21.3225 26.0924 21.3225 25.8436C21.3225 25.4029 21.0497 25.217 20.4591 25.217H19.3468C19.2374 25.217 19.2119 25.1735 19.2119 25.0431V24.511C19.2119 24.4016 19.2299 24.3716 19.3393 24.3716C19.5792 24.3716 20.4606 24.3716 22.5397 24.3716C22.9324 24.3716 24.5708 24.3716 25.2933 24.3716C27.7652 24.3716 28.9764 24.5979 30.2235 25.4509C31.2503 26.1509 31.8844 27.3756 31.8844 28.6227C31.8844 31.3794 29.3676 33.1152 26.1732 33.1152C25.3623 33.1152 25.1195 33.0598 24.4194 32.9713C24.4194 32.9713 24.4194 38.0169 24.4194 38.3242ZM24.4194 32.1289C24.7192 32.2158 25.1659 32.4167 25.8 32.4167C26.8328 32.4167 27.6213 31.8965 28.2494 30.8982C28.6721 30.2237 28.8684 29.4547 28.8684 28.6887C28.8684 25.8226 26.8898 25.0566 25.5991 25.0566C25.2274 25.0566 24.8586 25.0566 24.4194 25.211V32.1289Z" fill="#231F20"/>
<path d="M32.2198 34.1167C32.2198 33.4002 32.2933 32.916 31.5738 32.8216C31.4194 32.8021 31.3774 32.7541 31.3774 32.6672V32.4708C31.3774 32.4048 31.4224 32.3659 31.5288 32.3179C32.4956 31.8922 33.5359 31.2596 34.3994 30.5671C34.5523 30.4457 34.6377 30.4142 34.7666 30.4367C34.8536 30.4532 34.897 30.5266 34.897 30.645C34.897 31.0243 34.897 38.0815 34.897 38.3229C34.897 38.852 35.1699 39.1188 35.5266 39.1233H36.2581C36.432 39.1188 36.477 39.1788 36.477 39.3107V39.7559C36.477 39.9088 36.4335 39.9643 36.2806 39.9643C36.1067 39.9643 34.7816 39.9643 33.8612 39.9643C32.5931 39.9643 30.9787 39.9643 30.7388 39.9643C30.6294 39.9643 30.5649 39.9313 30.5649 39.7994V39.2882C30.5649 39.1563 30.6294 39.1143 30.7838 39.1218H31.6172C31.974 39.1188 32.2198 38.858 32.2198 38.3199C32.2198 37.6603 32.2198 34.1167 32.2198 34.1167Z" fill="#231F20"/>
<path d="M38.9279 34.6485C38.9249 35.8222 39.3311 37.1953 39.9038 37.9073C40.6967 38.8951 41.4927 39.084 42.2302 39.084C43.0441 39.084 43.5973 38.4364 44.1084 37.8218C44.1474 37.7754 44.2179 37.7574 44.2838 37.8218L44.75 38.291C44.8369 38.378 44.8594 38.4424 44.75 38.5728C44.1204 39.2893 42.7878 40.0673 41.2528 40.0628C40.1001 40.0598 38.3898 39.826 37.3899 38.5668C36.585 37.5025 36.3766 36.8145 36.3197 35.8387C36.1113 32.2681 38.8829 30.5862 41.5556 30.5862C43.8146 30.5862 44.5102 31.8378 44.5102 32.2935C44.4892 32.7942 44.1624 33.055 43.7067 33.055C43.206 33.055 42.8373 32.7717 42.5105 32.1856C42.0323 31.2952 41.5766 31.2188 41.055 31.2188C39.8183 31.2173 38.9354 32.2051 38.9279 34.6485Z" fill="#231F20"/>
<path d="M46.2267 38.6047C45.2269 37.4085 45.017 36.6755 44.9841 35.133C44.9586 33.9263 45.6706 32.5608 46.9537 31.5594C48.084 30.69 49.7419 30.6001 50.4584 30.5851C51.758 30.5581 53.3709 31.0333 54.1684 31.8172C55.2147 32.8456 55.6764 33.9098 55.6764 35.3219C55.6764 37.6918 53.2645 40.0063 50.1751 40.0617C49.1318 40.0797 47.1396 39.6915 46.2267 38.6047ZM52.9272 35.0686C52.9272 32.6762 51.3923 31.2206 50.283 31.2206C49.6969 31.2206 49.1018 31.3241 48.6086 31.9102C47.9611 32.6807 47.7017 34.0028 47.7602 35.2424C47.8172 36.4596 48.048 37.476 48.5846 38.2075C49.0988 38.909 49.6145 39.3482 50.5408 39.3287C52.1912 39.2927 52.9272 37.3755 52.9272 35.0686Z" fill="#231F20"/>
<path d="M56.0736 39.9626C55.8143 39.9626 55.5939 39.8711 55.4155 39.6943C55.2372 39.5144 55.1472 39.294 55.1472 39.0347C55.1472 38.7709 55.2342 38.5505 55.4125 38.3752C55.5894 38.1968 55.8083 38.1113 56.0751 38.1113C56.3344 38.1113 56.5548 38.1998 56.7316 38.3811C56.91 38.561 57 38.7769 57 39.0347C57 39.291 56.91 39.5084 56.7316 39.6898C56.5563 39.8711 56.3359 39.9626 56.0736 39.9626ZM55.3016 39.0362C55.3016 39.2521 55.3751 39.4334 55.5235 39.5833C55.6719 39.7347 55.8562 39.8112 56.0766 39.8112C56.2894 39.8112 56.4708 39.7362 56.6207 39.5893C56.7721 39.4409 56.8486 39.2566 56.8486 39.0377C56.8486 38.8428 56.7751 38.663 56.6342 38.5056C56.4903 38.3452 56.3029 38.2672 56.0736 38.2672C55.8592 38.2672 55.6764 38.3407 55.528 38.4921C55.3766 38.639 55.3016 38.8234 55.3016 39.0362Z" fill="#231F20"/>
<path d="M55.6736 38.5403H56.1218C56.1952 38.5403 56.2567 38.5508 56.3047 38.5748C56.3976 38.6152 56.4426 38.6947 56.4426 38.8101C56.4426 38.8686 56.4291 38.9165 56.4051 38.957C56.3811 38.993 56.3451 39.023 56.3017 39.0469C56.3421 39.0619 56.3691 39.0814 56.3901 39.1099C56.4081 39.1324 56.4216 39.1759 56.4246 39.2358L56.4276 39.3677C56.4276 39.4082 56.4321 39.4367 56.4381 39.4547C56.4456 39.4847 56.4606 39.5056 56.4815 39.5131V39.5371H56.3152C56.3122 39.5281 56.3077 39.5161 56.3047 39.5011C56.3017 39.4876 56.3002 39.4607 56.2987 39.4232L56.2897 39.2553C56.2867 39.1894 56.2627 39.1489 56.2192 39.1264C56.1952 39.1144 56.1548 39.1099 56.1023 39.1099H55.807V39.5371H55.6736V38.5403ZM56.1068 38.9945C56.1683 38.9945 56.2162 38.9825 56.2507 38.957C56.2882 38.9315 56.3047 38.8866 56.3047 38.8236C56.3047 38.7501 56.2792 38.7037 56.2297 38.6767C56.2027 38.6662 56.1668 38.6587 56.1248 38.6587H55.807V38.9945H56.1068Z" fill="#231F20"/>
</svg>
